<svg xmlns="http://www.w3.org/2000/svg" version="1.1" xmlns:xlink="http://www.w3.org/1999/xlink" xmlns:svgjs="http://svgjs.com/svgjs" width="512" height="512" x="0" y="0" viewBox="0 0 512.11 512.11" style="enable-background:new 0 0 512 512" xml:space="preserve" class=""><g><path fill="#f4e972" d="M377.259 29.596c3.46-6.633 12.997-6.633 16.456 0 4.686 8.986 8.903 18.233 12.583 27.778 13.182-11.381 26.063-24.616 35.409-43.49 3.876-7.828 14.714-8.627 19.673-1.437 22.493 32.613 37.891 81.977 38.411 125.663.503 42.233-33.393 77.784-75.629 77.619-41.471-.162-75.04-33.831-75.04-75.341 0-42.158 11.099-78.122 28.137-110.792z" data-original="#f4e972" class=""/><path fill="#eda1ab" d="M459.011 144.126c-.239-20.037-7.301-42.678-17.618-57.636-2.275-3.298-7.245-2.931-9.023.659-13.362 26.984-42.465 28.874-42.465 58.022 0 19.039 15.397 34.481 34.418 34.556 19.372.075 34.919-16.231 34.688-35.601z" data-original="#eda1ab" class=""/><circle cx="255.69" cy="286.494" r="218.008" fill="#7ca1dc" data-original="#7ca1dc" class=""/><path fill="#5a8bd5" d="M356.636 479.757C150.349 440.914 91.589 239.51 126.28 111.047c-53.74 39.705-88.598 103.502-88.598 175.447 0 120.403 97.606 218.008 218.008 218.008 36.429.001 70.763-8.947 100.946-24.745z" data-original="#5a8bd5"/><path fill="#4e5660" d="M255.69 314.054c17.245 0 32.603 11.705 42.262-8.264 9.798-20.256-12.146-50.314-42.262-50.314s-52.06 30.058-42.262 50.314c9.659 19.969 25.016 8.264 42.262 8.264z" data-original="#4e5660"/><g fill="#fff"><ellipse cx="163.308" cy="298.434" rx="34.087" ry="27.145" fill="#ffffff" data-original="#ffffff" class=""/><ellipse cx="348.072" cy="298.434" rx="34.087" ry="27.145" fill="#ffffff" data-original="#ffffff" class=""/></g><path fill="#8de1ce" d="M43.097 238.028c16.33-16.217 23.397-19.382 33.703-15.054 13.373 5.615 15.832 25.147 48.642 15.685s31.462-48.44 20.045-68.14c-11.69-20.171-3.985-41.515-6.161-68.399-47.969 30.337-83.28 78.871-96.229 135.908z" data-original="#8de1ce" class=""/><path fill="#6fcd90" d="M126.279 111.05c-41.296 30.511-71.438 75.246-83.182 126.978 16.33-16.217 23.397-19.382 33.703-15.054 12.841 5.392 15.636 23.601 44.889 16.662-7.801-45.188-5.789-90.151 4.59-128.586zM166.154 388.229c-1.06-16.083-13.98-49.341-49.236-53.596-25.6-3.09-52.153 8.555-70.832 11.994 16.468 57.508 55.967 105.277 107.874 132.716-.638-25.671 14.628-54.181 12.194-91.114z" data-original="#6fcd90"/><g fill="#8de1ce"><path d="M466.738 231.654c-13.715-52.929-46.819-98.041-91.275-127.33-8.185 16.591-20.048 31.049-48.229 29.29-14.965-.934-46.197 8.983-46.197 30.095s10.333 50.289 44.981 46.642c34.647-3.647 49.077-20.667 66.256-4.863 16.398 15.087 27.473 44.292 74.464 26.166zM471.447 317.831c-25.057 9.019-59.333 16.501-81.276 13.317-32.216-4.676-71.393 5.658-72.471 31.188-1.079 25.53.745 40.314 26.275 54.501 13.609 7.562 24.688 29.149 30.026 52.79 51.678-33.456 88.288-88.186 97.446-151.796z" fill="#8de1ce" data-original="#8de1ce" class=""/></g><path fill="#f4e972" d="M134.851 67.734c-3.459-6.634-12.997-6.634-16.456 0-4.686 8.986-8.903 18.233-12.583 27.778C92.63 84.131 79.75 70.896 70.403 52.022c-3.876-7.828-14.714-8.627-19.673-1.437-22.493 32.614-37.891 81.977-38.411 125.663-.503 42.233 33.393 77.784 75.629 77.619 41.471-.162 75.04-33.832 75.04-75.341 0-42.157-11.099-78.122-28.137-110.792z" data-original="#f4e972" class=""/><path fill="#eda1ab" d="M53.098 182.264c.239-20.037 7.301-42.678 17.618-57.636 2.275-3.298 7.246-2.931 9.023.659 13.362 26.984 42.465 28.874 42.465 58.022 0 19.039-15.397 34.481-34.418 34.556-19.371.075-34.918-16.23-34.688-35.601z" data-original="#eda1ab" class=""/><path d="M255.69 247.976c-18.242 0-35.62 9.639-45.351 25.156-7.548 12.037-8.884 25.13-3.663 35.924 12.357 25.547 34.2 12.498 49.014 12.498 14.897 0 36.674 13.009 49.014-12.498 12.081-24.978-12.88-61.08-49.014-61.08zm35.509 54.549c-4.21 8.703-7.875 8.399-19.928 6.006-13.299-2.639-17.858-2.641-31.164 0-12.056 2.394-15.718 2.697-19.929-6.006-2.881-5.957-1.809-13.966 2.868-21.423 5.495-8.762 16.956-18.125 32.643-18.125 15.686 0 27.147 9.363 32.642 18.125 4.678 7.457 5.75 15.465 2.868 21.423zm-89.421-45.447c-5.717-6.56-13.979-10.322-22.666-10.322s-16.948 3.762-22.665 10.322a7.5 7.5 0 0 0 11.308 9.856c2.868-3.291 7.008-5.178 11.358-5.178s8.49 1.887 11.357 5.178a7.501 7.501 0 0 0 11.308-9.856zm108.551 10.582a7.499 7.499 0 0 0 10.581-.727c2.867-3.29 7.007-5.177 11.357-5.177s8.49 1.887 11.357 5.178a7.501 7.501 0 0 0 11.309-9.856 30.065 30.065 0 0 0-22.666-10.322 30.061 30.061 0 0 0-22.666 10.323 7.5 7.5 0 0 0 .728 10.581zM86.461 121.958c-4.32-8.723-16.398-9.592-21.919-1.589-11.255 16.318-18.69 40.578-18.943 61.805-.274 22.964 17.976 43.19 42.217 43.19 23.098-.091 41.889-18.957 41.889-42.056-.001-33.577-30.911-36.443-43.244-61.35zm1.192 88.407c-15.286-.001-27.234-13.026-27.055-28.012.201-16.837 5.84-36.527 14.251-50.318 14.63 25.381 39.855 27.973 39.855 51.273 0 14.892-12.143 27.057-27.051 27.057zm419.638-72.344c-.328-27.563-6.412-58.107-17.13-86.005a7.497 7.497 0 0 0-9.69-4.312 7.498 7.498 0 0 0-4.311 9.69c10.096 26.279 15.825 54.976 16.134 80.805.274 23.067-11.224 45.01-29.837 58.008a222.452 222.452 0 0 0-9.945-19.973c8.901-8.165 14.145-19.943 13.998-32.198-.252-21.226-7.688-45.486-18.942-61.805-5.532-8.023-17.608-7.114-21.918 1.589-6.481 13.088-17.588 19.719-27.09 28.166a224.928 224.928 0 0 0-35.682-24.006c4.492-18.409 11.393-36.433 21.033-54.917.659-1.265 2.494-1.269 3.155 0 4.636 8.888 8.752 17.975 12.235 27.008 1.863 4.834 7.972 6.371 11.899 2.978 11.817-10.202 26.728-24.632 37.228-45.838 1.342-2.71 5.07-2.985 6.779-.506a161.031 161.031 0 0 1 6.252 9.833 7.5 7.5 0 0 0 12.934-7.597 175.93 175.93 0 0 0-6.838-10.753c-8.21-11.905-26.154-10.586-32.568 2.366-7.191 14.524-16.596 25.367-25.787 34.104a283.92 283.92 0 0 0-8.834-18.533c-6.256-11.996-23.497-12-29.756.001-9.635 18.476-16.697 36.562-21.48 55.012-62.636-28.536-135.875-26.739-197.304 5.159a281.473 281.473 0 0 0-10.324-22.033c-6.256-11.996-23.497-12.001-29.756 0a284.127 284.127 0 0 0-8.833 18.533c-9.192-8.738-18.596-19.581-25.788-34.105-6.419-12.962-24.362-14.264-32.568-2.367C20.948 80.556 5.35 131.519 4.819 176.159c-.29 24.362 10.178 48.788 29.838 65.567-21.115 104.785 33.704 210.446 133.252 252.552a7.5 7.5 0 0 0 5.844-13.815 212.755 212.755 0 0 1-12.233-5.646c1.129-23.489 14.484-51.188 12.119-87.081-1.382-20.972-17.758-55.954-55.821-60.548-23.984-2.896-48.312 6.073-66.339 10.567a211.61 211.61 0 0 1-3.318-86.631c53.738 29.913 122.327-9.109 122.327-72.599 0-26.788-4.37-52.605-13.268-78.118 64.154-33.989 143.623-33.144 208.295 6.566-7.547 12.658-17.732 20.406-37.813 19.156-12.49-.774-32.157 4.372-43.957 15.458-6.677 6.273-10.206 13.923-10.206 22.123 0 8.556 1.652 29.945 16.957 43.723 18.85 16.973 44.874 10.53 69.085 2.876 14.85-4.696 20.355-5.98 27.616.7 14.359 13.209 28.512 44.133 74.132 30.432 4.984 22.769 6.255 46.655 3.29 70.827-23.439 7.921-54.055 14.261-73.37 11.457-21.798-3.165-51.384-.063-68.341 13.996-7.915 6.561-12.307 14.964-12.701 24.298-1.078 25.535.451 44.884 30.125 61.374 9.973 5.541 19.558 22.009 25.072 42.692-48.729 29.879-105.724 37.599-157.91 25.378a7.498 7.498 0 0 0-9.012 5.592 7.499 7.499 0 0 0 5.592 9.012C345.287 539.141 481.2 432.345 481.2 286.495c0-26.325-4.481-51.961-13.081-76.038 24.329-15.506 39.52-43.235 39.172-72.436zM116.02 342.08c32.565 3.931 41.936 35.791 42.65 46.643 1.999 30.322-8.578 54.588-11.508 78.212a210.084 210.084 0 0 1-91.529-114.757c18.134-4.574 39.858-12.574 60.387-10.098zm-28.102-95.713c-38.076.206-68.552-32.097-68.101-70.029.499-41.863 15.056-89.552 37.085-121.494 1.69-2.45 5.418-2.241 6.778.506 10.502 21.207 25.412 35.637 37.229 45.839 3.929 3.393 10.036 1.855 11.899-2.979 3.481-9.03 7.598-18.117 12.235-27.008.659-1.262 2.493-1.272 3.156 0 18.361 35.207 27.287 70.313 27.287 107.324.002 37.262-30.31 67.695-67.568 67.841zm349.343-152.47c8.411 13.791 14.051 33.481 14.251 50.318.083 6.971-2.515 13.702-7.033 18.833-9.906-15.083-21.397-28.7-34.565-41.065 8.79-7.519 19.616-14.672 27.347-28.086zM397.353 199.97c-14.023-12.902-27.756-8.56-42.295-3.963-8.328 2.633-17.768 5.618-29.824 6.887-10.314 1.088-18.625-1.138-24.702-6.608-7.51-6.761-11.993-18.938-11.993-32.575 0-4.067 1.792-7.728 5.477-11.191 8.767-8.236 24.651-11.924 32.752-11.419 28.394 1.767 42.584-11.555 51.258-25.82 37.688 27.006 66.121 66.131 79.571 111.628-36.182 11.309-43.476-11.513-60.244-26.939zM378.52 457.347c-6.848-22.696-18.042-39.92-30.903-47.066-21.716-12.067-23.455-23.212-22.424-47.628.217-5.12 2.601-9.497 7.288-13.384 11.431-9.478 34.709-13.879 56.613-10.698 20.769 3.014 49.938-2.694 72.814-9.679-10.798 52.601-41.287 98.102-83.388 128.455z" fill="#000000" data-original="#000000" class=""/></g></svg>